<svg xmlns="http://www.w3.org/2000/svg" viewBox="0 0 32 32" fill="none">
  <circle cx="16" cy="16" r="16" fill="#A8405A"/>
  <!-- Outer petals -->
  <ellipse cx="16" cy="8"  rx="3.5" ry="6" fill="#FDE8EE" opacity="0.95" transform="rotate(0 16 16)"/>
  <ellipse cx="16" cy="8"  rx="3.5" ry="6" fill="#FDE8EE" opacity="0.95" transform="rotate(72 16 16)"/>
  <ellipse cx="16" cy="8"  rx="3.5" ry="6" fill="#FDE8EE" opacity="0.95" transform="rotate(144 16 16)"/>
  <ellipse cx="16" cy="8"  rx="3.5" ry="6" fill="#FDE8EE" opacity="0.95" transform="rotate(216 16 16)"/>
  <ellipse cx="16" cy="8"  rx="3.5" ry="6" fill="#FDE8EE" opacity="0.95" transform="rotate(288 16 16)"/>
  <!-- Inner petals -->
  <ellipse cx="16" cy="10" rx="2.5" ry="4.5" fill="#F2C4CE" opacity="0.9" transform="rotate(36 16 16)"/>
  <ellipse cx="16" cy="10" rx="2.5" ry="4.5" fill="#F2C4CE" opacity="0.9" transform="rotate(108 16 16)"/>
  <ellipse cx="16" cy="10" rx="2.5" ry="4.5" fill="#F2C4CE" opacity="0.9" transform="rotate(180 16 16)"/>
  <ellipse cx="16" cy="10" rx="2.5" ry="4.5" fill="#F2C4CE" opacity="0.9" transform="rotate(252 16 16)"/>
  <ellipse cx="16" cy="10" rx="2.5" ry="4.5" fill="#F2C4CE" opacity="0.9" transform="rotate(324 16 16)"/>
  <!-- Center -->
  <circle cx="16" cy="16" r="3.5" fill="#C97080"/>
  <circle cx="15" cy="15" r="1.2" fill="white" opacity="0.45"/>
</svg>
